<svg width="19" height="18" viewBox="0 0 19 18" fill="none" xmlns="http://www.w3.org/2000/svg">
<g clip-path="url(#clip0_271_392)">
<path d="M12.964 0C13.0059 0 13.0478 0 13.092 0C13.1948 1.2694 12.7103 2.21789 12.1214 2.90476C11.5436 3.58688 10.7524 4.24845 9.47273 4.14807C9.38737 2.89685 9.87268 2.01871 10.4607 1.33342C11.0061 0.69477 12.006 0.126466 12.964 0Z" fill="#252525"/>
<path d="M16.8378 13.2125C16.8378 13.2252 16.8378 13.2362 16.8378 13.2481C16.4781 14.3373 15.9652 15.2708 15.3392 16.137C14.7677 16.9235 14.0674 17.9819 12.817 17.9819C11.7365 17.9819 11.0188 17.2871 9.91141 17.2681C8.74002 17.2492 8.09584 17.8491 7.02484 18C6.90232 18 6.77981 18 6.65967 18C5.87321 17.8862 5.23851 17.2634 4.77612 16.7022C3.41266 15.0439 2.35905 12.9019 2.16302 10.1608C2.16302 9.89202 2.16302 9.62407 2.16302 9.35533C2.24602 7.39354 3.19925 5.79849 4.46628 5.02547C5.13497 4.61445 6.05421 4.2643 7.07779 4.4208C7.51647 4.48878 7.96463 4.63896 8.35747 4.78755C8.72975 4.93062 9.1953 5.18434 9.63635 5.1709C9.93512 5.16221 10.2323 5.0065 10.5335 4.89663C11.4156 4.5781 12.2803 4.21293 13.42 4.38445C14.7898 4.59153 15.762 5.20015 16.3627 6.13916C15.204 6.87661 14.2879 7.98792 14.4444 9.8857C14.5835 11.6096 15.5858 12.6181 16.8378 13.2125Z" fill="#252525"/>
</g>
<defs>
<clipPath id="clip0_271_392">
<rect width="18" height="18" fill="white" transform="translate(0.5)"/>
</clipPath>
</defs>
</svg>
