<svg width="25" height="24" viewBox="0 0 25 24" fill="none" xmlns="http://www.w3.org/2000/svg">
<path d="M17.8334 2H7.83337C5.07337 2 2.83337 4.23 2.83337 6.98V12.96V13.96C2.83337 16.71 5.07337 18.94 7.83337 18.94H9.33337C9.60337 18.94 9.96337 19.12 10.1334 19.34L11.6334 21.33C12.2934 22.21 13.3734 22.21 14.0334 21.33L15.5334 19.34C15.7234 19.09 16.0234 18.94 16.3334 18.94H17.8334C20.5934 18.94 22.8334 16.71 22.8334 13.96V6.98C22.8334 4.23 20.5934 2 17.8334 2ZM13.8334 13.75H7.83337C7.42337 13.75 7.08337 13.41 7.08337 13C7.08337 12.59 7.42337 12.25 7.83337 12.25H13.8334C14.2434 12.25 14.5834 12.59 14.5834 13C14.5834 13.41 14.2434 13.75 13.8334 13.75ZM17.8334 8.75H7.83337C7.42337 8.75 7.08337 8.41 7.08337 8C7.08337 7.59 7.42337 7.25 7.83337 7.25H17.8334C18.2434 7.25 18.5834 7.59 18.5834 8C18.5834 8.41 18.2434 8.75 17.8334 8.75Z" fill="#1D61E7"/>
</svg>
