<svg width="25" height="24" viewBox="0 0 25 24" fill="none" xmlns="http://www.w3.org/2000/svg">
<path d="M9.33337 19H8.83337C4.83337 19 2.83337 18 2.83337 13V8C2.83337 4 4.83337 2 8.83337 2H16.8334C20.8334 2 22.8334 4 22.8334 8V13C22.8334 17 20.8334 19 16.8334 19H16.3334C16.0234 19 15.7234 19.15 15.5334 19.4L14.0334 21.4C13.3734 22.28 12.2934 22.28 11.6334 21.4L10.1334 19.4C9.97337 19.18 9.60337 19 9.33337 19Z" stroke="#5B5B5B" stroke-width="1.5" stroke-miterlimit="10" stroke-linecap="round" stroke-linejoin="round"/>
<path d="M7.83337 8H17.8334" stroke="#5B5B5B" stroke-width="1.5" stroke-linecap="round" stroke-linejoin="round"/>
<path d="M7.83337 13H13.8334" stroke="#5B5B5B" stroke-width="1.5" stroke-linecap="round" stroke-linejoin="round"/>
</svg>
