<svg width="25" height="24" viewBox="0 0 25 24" fill="none" xmlns="http://www.w3.org/2000/svg">
<path d="M9.16663 22H15.1666C20.1666 22 22.1666 20 22.1666 15V9C22.1666 4 20.1666 2 15.1666 2H9.16663C4.16663 2 2.16663 4 2.16663 9V15C2.16663 20 4.16663 22 9.16663 22Z" stroke="#5B5B5B" stroke-width="1.5" stroke-linecap="round" stroke-linejoin="round"/>
<path d="M15.6666 18.5C16.7666 18.5 17.6666 17.6 17.6666 16.5V7.5C17.6666 6.4 16.7666 5.5 15.6666 5.5C14.5666 5.5 13.6666 6.4 13.6666 7.5V16.5C13.6666 17.6 14.5566 18.5 15.6666 18.5Z" stroke="#5B5B5B" stroke-width="1.5" stroke-linecap="round" stroke-linejoin="round"/>
<path d="M8.66663 18.5C9.76663 18.5 10.6666 17.6 10.6666 16.5V13C10.6666 11.9 9.76663 11 8.66663 11C7.56663 11 6.66663 11.9 6.66663 13V16.5C6.66663 17.6 7.55663 18.5 8.66663 18.5Z" stroke="#5B5B5B" stroke-width="1.5" stroke-linecap="round" stroke-linejoin="round"/>
</svg>
