<svg width="25" height="24" viewBox="0 0 25 24" fill="none" xmlns="http://www.w3.org/2000/svg">
<path d="M16.3566 2H7.97663C4.33663 2 2.16663 4.17 2.16663 7.81V16.18C2.16663 19.83 4.33663 22 7.97663 22H16.3466C19.9866 22 22.1566 19.83 22.1566 16.19V7.81C22.1666 4.17 19.9966 2 16.3566 2ZM10.0766 16.19C10.0766 16.83 9.55663 17.35 8.90663 17.35C8.26663 17.35 7.74663 16.83 7.74663 16.19V12.93C7.74663 12.29 8.26663 11.77 8.90663 11.77C9.55663 11.77 10.0766 12.29 10.0766 12.93V16.19ZM16.5866 16.19C16.5866 16.83 16.0666 17.35 15.4266 17.35C14.7766 17.35 14.2566 16.83 14.2566 16.19V7.81C14.2566 7.17 14.7766 6.65 15.4266 6.65C16.0666 6.65 16.5866 7.17 16.5866 7.81V16.19Z" fill="#1D61E7"/>
</svg>
