<svg width="73" height="81" viewBox="0 0 73 81" fill="none" xmlns="http://www.w3.org/2000/svg">
<path d="M12.0762 6.92004L12.0762 59.0241" stroke="url(#paint0_linear_146_63268)" stroke-width="2.71375"/>
<path d="M17.5037 6.92004L17.5037 59.0241" stroke="url(#paint1_linear_146_63268)" stroke-width="2.71375"/>
<path d="M22.9312 6.92004L22.9312 59.0241" stroke="url(#paint2_linear_146_63268)" stroke-width="2.71375"/>
<path d="M28.3587 6.92004L28.3588 59.0241" stroke="url(#paint3_linear_146_63268)" stroke-width="2.71375"/>
<path d="M33.7863 6.92004L33.7863 59.0241" stroke="url(#paint4_linear_146_63268)" stroke-width="2.71375"/>
<path d="M39.2138 6.92004L39.2138 59.0241" stroke="url(#paint5_linear_146_63268)" stroke-width="2.71375"/>
<path d="M44.6413 6.92004L44.6413 59.0241" stroke="url(#paint6_linear_146_63268)" stroke-width="2.71375"/>
<path d="M50.0688 6.92004L50.0688 59.0241" stroke="url(#paint7_linear_146_63268)" stroke-width="2.71375"/>
<path d="M55.4963 6.92004L55.4963 59.0241" stroke="url(#paint8_linear_146_63268)" stroke-width="2.71375"/>
<path d="M60.9238 6.92004L60.9238 59.0241" stroke="url(#paint9_linear_146_63268)" stroke-width="2.71375"/>
<mask id="mask0_146_63268" style="mask-type:luminance" maskUnits="userSpaceOnUse" x="8" y="0" width="57" height="60">
<path d="M8.07343 1.52588e-05H64.9266V59.0242H8.07343V1.52588e-05Z" fill="white"/>
</mask>
<g mask="url(#mask0_146_63268)">
<path d="M37.6563 59.7342C37.4095 60.1361 36.9717 60.381 36.5 60.381C36.0284 60.381 35.5905 60.1361 35.3437 59.7342C34.0613 57.6457 32.5588 55.3601 30.9753 52.9513C28.4092 49.0479 25.6305 44.8209 23.2309 40.5851C19.3238 33.6883 16.1468 26.3351 16.1468 19.4022C16.1468 7.38824 25.1732 -2.57806 36.5 -2.57806C47.8268 -2.57806 56.8532 7.38824 56.8532 19.4022C56.8532 26.3351 53.6762 33.6883 49.7691 40.5851C47.3695 44.8209 44.5908 49.0479 42.0247 52.9513C40.4412 55.3601 38.9387 57.6457 37.6563 59.7342Z" fill="white" stroke="white" stroke-width="2.71375" stroke-miterlimit="10" stroke-linecap="round" stroke-linejoin="round"/>
<path d="M36.5 55.8461C29.8375 45.7331 18.1782 32.0244 18.1782 20.2259C18.1782 10.0027 26.3973 1.68547 36.5 1.68547C46.6026 1.68547 54.8218 10.0027 54.8218 20.2259C54.8218 32.0244 43.1625 45.7331 36.5 55.8461Z" fill="white" stroke="#042338" stroke-width="2.71375" stroke-miterlimit="10" stroke-linecap="round" stroke-linejoin="round"/>
<path d="M36.5 28.6534C31.9081 28.6534 28.1719 24.8726 28.1719 20.226C28.1719 15.5793 31.9081 11.7985 36.5 11.7985C41.0919 11.7985 44.8281 15.5793 44.8281 20.226C44.8281 24.8726 41.0919 28.6534 36.5 28.6534Z" stroke="#042338" stroke-width="2.71375" stroke-miterlimit="10" stroke-linecap="round" stroke-linejoin="round"/>
<path d="M36.5 24.5594C34.1059 24.5594 32.158 22.6115 32.158 20.2174C32.158 17.8234 34.1059 15.8754 36.5 15.8754C38.8941 15.8754 40.842 17.8234 40.842 20.2174C40.842 22.6115 38.8941 24.5594 36.5 24.5594Z" fill="url(#paint10_radial_146_63268)"/>
</g>
<path d="M7.18003 73.0242H4.76839L1.55509 63.4637H3.79446L5.98084 70.9637H6.02722L8.21359 63.4637H10.3933L7.18003 73.0242ZM14.7316 73.0242H12.7308V63.4637H14.7316V73.0242ZM17.3208 70.3011H19.2488C19.3416 71.0896 20.1631 71.6063 21.2232 71.6063C22.2899 71.6063 23.0187 71.0962 23.0187 70.3939C23.0187 69.7711 22.5615 69.4266 21.4087 69.1682L20.1631 68.8966C18.4008 68.5189 17.5328 67.6245 17.5328 66.2265C17.5328 64.4642 19.0567 63.2981 21.1901 63.2981C23.4162 63.2981 24.8141 64.4443 24.8473 66.1735H22.9723C22.906 65.3652 22.1971 64.875 21.1967 64.875C20.2095 64.875 19.547 65.3454 19.547 66.0543C19.547 66.6439 20.0107 66.9752 21.1106 67.227L22.27 67.4721C24.1847 67.8829 25.0195 68.7044 25.0195 70.162C25.0195 72.0171 23.5156 73.1898 21.1437 73.1898C18.8447 73.1898 17.3805 72.0966 17.3208 70.3011ZM29.6096 73.0242H27.6087V63.4637H29.6096V73.0242ZM36.8432 73.0242H34.8423V65.1135H32.0795V63.4637H39.6126V65.1135H36.8432V73.0242ZM48.4098 71.3678V73.0242H42.0759V63.4637H48.4098V65.1135H44.0768V67.4191H48.1646V68.9562H44.0768V71.3678H48.4098ZM55.438 73.1898C52.6553 73.1898 50.9128 71.3281 50.9128 68.2406C50.9128 65.1598 52.6686 63.2981 55.438 63.2981C57.737 63.2981 59.4861 64.7557 59.6385 66.8957H57.6906C57.5051 65.723 56.604 64.9545 55.438 64.9545C53.9274 64.9545 52.9534 66.2199 52.9534 68.234C52.9534 70.2746 53.9141 71.5335 55.4446 71.5335C56.6305 71.5335 57.4852 70.8378 57.6972 69.7049H59.6451C59.4198 71.8382 57.7833 73.1898 55.438 73.1898ZM70.5491 73.0242H68.5483V68.9959H64.2418V73.0242H62.2409V63.4637H64.2418V67.3462H68.5483V63.4637H70.5491V73.0242Z" fill="#042338"/>
<rect x="9.49814" y="76.5856" width="2.171" height="2.171" rx="1.0855" fill="#005C9F"/>
<path d="M13.3724 76.4941H14.4614C15.0105 76.4941 15.3889 76.8596 15.3889 77.4105C15.3889 77.9596 14.9975 78.3269 14.4336 78.3269H13.9327V79.171H13.3724V76.4941ZM13.9327 76.9375V77.8891H14.3111C14.6321 77.8891 14.8194 77.7185 14.8194 77.4124C14.8194 77.1081 14.6339 76.9375 14.313 76.9375H13.9327ZM16.2812 76.9319V77.7853H16.7636C17.0456 77.7853 17.2107 77.6239 17.2107 77.3586C17.2107 77.0989 17.0363 76.9319 16.758 76.9319H16.2812ZM16.2812 78.1915V79.171H15.721V76.4941H16.8174C17.4333 76.4941 17.7857 76.8187 17.7857 77.3475C17.7857 77.6906 17.6076 77.9875 17.2997 78.108L17.8637 79.171H17.2292L16.7302 78.1915H16.2812ZM19.9284 78.7072V79.171H18.1549V76.4941H19.9284V76.956H18.7151V77.6016H19.8597V78.032H18.7151V78.7072H19.9284ZM21.5164 79.2174C20.7372 79.2174 20.2493 78.6961 20.2493 77.8316C20.2493 76.969 20.7409 76.4477 21.5164 76.4477C22.1601 76.4477 22.6498 76.8558 22.6925 77.455H22.1471C22.0951 77.1267 21.8429 76.9115 21.5164 76.9115C21.0934 76.9115 20.8207 77.2658 20.8207 77.8298C20.8207 78.4012 21.0897 78.7536 21.5182 78.7536C21.8503 78.7536 22.0896 78.5588 22.1489 78.2416H22.6943C22.6313 78.839 22.1731 79.2174 21.5164 79.2174ZM23.6015 79.171H23.0413V76.4941H23.6015V79.171ZM23.9465 78.4086H24.4864C24.5124 78.6293 24.7424 78.774 25.0392 78.774C25.3379 78.774 25.5419 78.6312 25.5419 78.4345C25.5419 78.2602 25.4139 78.1637 25.0911 78.0913L24.7424 78.0153C24.2489 77.9095 24.0059 77.6591 24.0059 77.2677C24.0059 76.7742 24.4326 76.4477 25.0299 76.4477C25.6532 76.4477 26.0447 76.7687 26.0539 77.2528H25.5289C25.5104 77.0265 25.3119 76.8892 25.0318 76.8892C24.7554 76.8892 24.5699 77.021 24.5699 77.2194C24.5699 77.3846 24.6997 77.4773 25.0077 77.5478L25.3323 77.6164C25.8684 77.7315 26.1022 77.9615 26.1022 78.3696C26.1022 78.889 25.6811 79.2174 25.0169 79.2174C24.3732 79.2174 23.9632 78.9113 23.9465 78.4086ZM27.0075 79.171H26.4472V76.4941H27.0075V79.171ZM28.6604 76.4477C29.4525 76.4477 29.9515 76.9801 29.9515 77.8335C29.9515 78.685 29.4525 79.2174 28.6604 79.2174C27.8664 79.2174 27.3692 78.685 27.3692 77.8335C27.3692 76.9801 27.8664 76.4477 28.6604 76.4477ZM28.6604 76.9152C28.2226 76.9152 27.9406 77.2714 27.9406 77.8335C27.9406 78.3937 28.2207 78.7481 28.6604 78.7481C29.0982 78.7481 29.3783 78.3937 29.3783 77.8335C29.3783 77.2714 29.0982 76.9152 28.6604 76.9152ZM30.8494 79.171H30.3133V76.4941H30.7808L32.0311 78.2379H32.0459V76.4941H32.5821V79.171H32.1183L30.8661 77.4179H30.8494V79.171ZM34.3426 79.171H33.7823V76.4941H34.3426V79.171ZM35.3239 79.171H34.7878V76.4941H35.2553L36.5056 78.2379H36.5205V76.4941H37.0566V79.171H36.5928L35.3406 77.4179H35.3239V79.171ZM40.0303 78.7072V79.171H38.2568V76.4941H40.0303V76.956H38.8171V77.6016H39.9617V78.032H38.8171V78.7072H40.0303ZM41.839 79.171H41.1638L40.2641 76.4941H40.8911L41.5033 78.5941H41.5163L42.1284 76.4941H42.7388L41.839 79.171ZM44.7868 78.7072V79.171H43.0133V76.4941H44.7868V76.956H43.5736V77.6016H44.7182V78.032H43.5736V78.7072H44.7868ZM45.7515 76.9319V77.7853H46.2338C46.5158 77.7853 46.6809 77.6239 46.6809 77.3586C46.6809 77.0989 46.5065 76.9319 46.2282 76.9319H45.7515ZM45.7515 78.1915V79.171H45.1912V76.4941H46.2876C46.9035 76.4941 47.2559 76.8187 47.2559 77.3475C47.2559 77.6906 47.0779 77.9875 46.7699 78.108L47.3339 79.171H46.6994L46.2004 78.1915H45.7515ZM48.8903 79.171H48.3301V78.1711L47.3988 76.4941H48.0091L48.6083 77.6368H48.6213L49.2224 76.4941H49.8234L48.8903 78.1711V79.171ZM52.2536 79.171H51.5783L50.6786 76.4941H51.3056L51.9178 78.5941H51.9308L52.543 76.4941H53.1533L52.2536 79.171ZM53.9881 79.171H53.4279V76.4941H53.9881V79.171ZM54.3332 78.4086H54.873C54.899 78.6293 55.129 78.774 55.4258 78.774C55.7245 78.774 55.9286 78.6312 55.9286 78.4345C55.9286 78.2602 55.8006 78.1637 55.4778 78.0913L55.129 78.0153C54.6356 77.9095 54.3925 77.6591 54.3925 77.2677C54.3925 76.7742 54.8192 76.4477 55.4166 76.4477C56.0399 76.4477 56.4313 76.7687 56.4406 77.2528H55.9156C55.897 77.0265 55.6985 76.8892 55.4184 76.8892C55.142 76.8892 54.9565 77.021 54.9565 77.2194C54.9565 77.3846 55.0863 77.4773 55.3943 77.5478L55.7189 77.6164C56.2551 77.7315 56.4888 77.9615 56.4888 78.3696C56.4888 78.889 56.0677 79.2174 55.4036 79.2174C54.7599 79.2174 54.3499 78.9113 54.3332 78.4086ZM57.3941 79.171H56.8339V76.4941H57.3941V79.171ZM59.0396 79.171H58.4793V76.956H57.7058V76.4941H59.815V76.956H59.0396V79.171Z" fill="#042338"/>
<rect x="61.3829" y="76.5856" width="2.171" height="2.171" rx="1.0855" fill="#005C9F"/>
<path d="M0 57.6672L8.14126 57.6672" stroke="#042338" stroke-width="2.71375"/>
<path d="M64.8587 57.6672L73 57.6672" stroke="#042338" stroke-width="2.71375"/>
<defs>
<linearGradient id="paint0_linear_146_63268" x1="12.0762" y1="13.8064" x2="12.0762" y2="15.1339" gradientUnits="userSpaceOnUse">
<stop stop-color="#042338"/>
<stop offset="1" stop-color="#3493DA"/>
</linearGradient>
<linearGradient id="paint1_linear_146_63268" x1="17.5037" y1="13.8064" x2="17.5037" y2="15.1339" gradientUnits="userSpaceOnUse">
<stop stop-color="#042338"/>
<stop offset="1" stop-color="#3493DA"/>
</linearGradient>
<linearGradient id="paint2_linear_146_63268" x1="22.9312" y1="13.8064" x2="22.9312" y2="15.1339" gradientUnits="userSpaceOnUse">
<stop stop-color="#042338"/>
<stop offset="1" stop-color="#3493DA"/>
</linearGradient>
<linearGradient id="paint3_linear_146_63268" x1="28.3587" y1="13.8064" x2="28.3587" y2="15.1339" gradientUnits="userSpaceOnUse">
<stop stop-color="#042338"/>
<stop offset="1" stop-color="#3493DA"/>
</linearGradient>
<linearGradient id="paint4_linear_146_63268" x1="33.7863" y1="13.8064" x2="33.7863" y2="15.1339" gradientUnits="userSpaceOnUse">
<stop stop-color="#042338"/>
<stop offset="1" stop-color="#3493DA"/>
</linearGradient>
<linearGradient id="paint5_linear_146_63268" x1="39.2138" y1="13.8064" x2="39.2138" y2="15.1339" gradientUnits="userSpaceOnUse">
<stop stop-color="#042338"/>
<stop offset="1" stop-color="#3493DA"/>
</linearGradient>
<linearGradient id="paint6_linear_146_63268" x1="44.6413" y1="13.8064" x2="44.6413" y2="15.1339" gradientUnits="userSpaceOnUse">
<stop stop-color="#042338"/>
<stop offset="1" stop-color="#3493DA"/>
</linearGradient>
<linearGradient id="paint7_linear_146_63268" x1="50.0688" y1="13.8064" x2="50.0688" y2="15.1339" gradientUnits="userSpaceOnUse">
<stop stop-color="#042338"/>
<stop offset="1" stop-color="#3493DA"/>
</linearGradient>
<linearGradient id="paint8_linear_146_63268" x1="55.4963" y1="13.8064" x2="55.4963" y2="15.1339" gradientUnits="userSpaceOnUse">
<stop stop-color="#042338"/>
<stop offset="1" stop-color="#3493DA"/>
</linearGradient>
<linearGradient id="paint9_linear_146_63268" x1="60.9238" y1="13.8064" x2="60.9238" y2="15.1339" gradientUnits="userSpaceOnUse">
<stop stop-color="#042338"/>
<stop offset="1" stop-color="#3493DA"/>
</linearGradient>
<radialGradient id="paint10_radial_146_63268" cx="0" cy="0" r="1" gradientUnits="userSpaceOnUse" gradientTransform="translate(36.4322 20.421) rotate(-89.3179) scale(5.69929)">
<stop stop-color="#05131E"/>
<stop offset="1" stop-color="#145384"/>
</radialGradient>
</defs>
</svg>
