<svg width="102" height="123" viewBox="0 0 102 123" fill="none" xmlns="http://www.w3.org/2000/svg">
<g filter="url(#filter0_d_79_508)">
<rect x="40" y="40.5" width="42" height="42" rx="21" fill="white"/>
<path fill-rule="evenodd" clip-rule="evenodd" d="M55.3917 58.925C55.3917 55.8215 57.9131 53.3 61.0167 53.3C64.1118 53.3 66.6417 55.8298 66.6417 58.925V61.3333C66.6417 61.5124 66.6822 61.7745 66.759 62.0545C66.8348 62.3311 66.9328 62.577 67.0221 62.7331L67.9776 64.3201C68.7322 65.5778 68.129 67.2162 66.7388 67.6764C63.0188 68.9191 59.0052 68.919 55.2853 67.6761L55.2829 67.6753C54.5809 67.4377 54.0545 66.9465 53.8191 66.3108C53.5834 65.6743 53.6636 64.958 54.0478 64.3194L55.0048 62.73C55.005 62.7296 55.0052 62.7292 55.0054 62.7289C55.0967 62.5755 55.1967 62.3305 55.2738 62.0526C55.3512 61.7739 55.3917 61.5122 55.3917 61.3333V58.925ZM61.0167 54.55C58.6035 54.55 56.6417 56.5118 56.6417 58.925V61.3333C56.6417 61.6628 56.5738 62.0428 56.4783 62.387C56.3827 62.7313 56.2454 63.0901 56.0785 63.37L56.0771 63.3724L55.1189 64.9639C55.1188 64.9639 55.1189 64.9638 55.1189 64.9639C54.9115 65.3086 54.8999 65.6299 54.9913 65.8767C55.0829 66.1241 55.3019 66.3618 55.6826 66.4909C59.1454 67.6476 62.8809 67.6475 66.3436 66.4905L66.3455 66.4899C66.9711 66.2831 67.2508 65.539 66.906 64.9637C66.9059 64.9635 66.9061 64.9638 66.906 64.9637L65.9419 63.3624C65.7818 63.0849 65.6477 62.7287 65.5535 62.3851C65.4595 62.0422 65.3917 61.6626 65.3917 61.3333V58.925C65.3917 56.5202 63.4215 54.55 61.0167 54.55Z" fill="#252525"/>
<path fill-rule="evenodd" clip-rule="evenodd" d="M58.8931 53.9386C59.226 53.0892 60.0524 52.4917 61.0167 52.4917C61.9809 52.4917 62.8074 53.0892 63.1402 53.9386C63.2271 54.1604 63.1805 54.4122 63.0199 54.5881C62.8593 54.7639 62.6128 54.8333 62.3841 54.7669C62.1529 54.6998 61.9196 54.6491 61.6831 54.6205L61.6808 54.6202C60.9605 54.5301 60.2798 54.5836 59.6495 54.7668C59.4207 54.8333 59.1741 54.764 59.0135 54.5881C58.8529 54.4123 58.8062 54.1604 58.8931 53.9386Z" fill="#252525"/>
<path fill-rule="evenodd" clip-rule="evenodd" d="M59.1417 67.3833C59.1417 67.8938 59.354 68.3701 59.6919 68.7081C60.0299 69.046 60.5062 69.2583 61.0167 69.2583C62.0465 69.2583 62.8917 68.4132 62.8917 67.3833H64.1417C64.1417 69.1035 62.7368 70.5083 61.0167 70.5083C60.1604 70.5083 59.3701 70.154 58.8081 69.5919C58.246 69.0299 57.8917 68.2396 57.8917 67.3833H59.1417Z" fill="#252525"/>
</g>
<defs>
<filter id="filter0_d_79_508" x="0" y="0.5" width="122" height="122" filterUnits="userSpaceOnUse" color-interpolation-filters="sRGB">
<feFlood flood-opacity="0" result="BackgroundImageFix"/>
<feColorMatrix in="SourceAlpha" type="matrix" values="0 0 0 0 0 0 0 0 0 0 0 0 0 0 0 0 0 0 127 0" result="hardAlpha"/>
<feOffset/>
<feGaussianBlur stdDeviation="20"/>
<feColorMatrix type="matrix" values="0 0 0 0 0 0 0 0 0 0 0 0 0 0 0 0 0 0 0.1 0"/>
<feBlend mode="normal" in2="BackgroundImageFix" result="effect1_dropShadow_79_508"/>
<feBlend mode="normal" in="SourceGraphic" in2="effect1_dropShadow_79_508" result="shape"/>
</filter>
</defs>
</svg>
