<svg width="161" height="160" viewBox="0 0 161 160" fill="none" xmlns="http://www.w3.org/2000/svg">
<g clip-path="url(#clip0_32_44719)">
<path d="M154.869 79.9966C157.34 77.1191 159.072 73.6822 159.914 69.984C160.756 66.2858 160.683 62.438 159.701 58.7744C158.719 55.1108 156.859 51.7421 154.28 48.9604C151.702 46.1788 148.484 44.0683 144.905 42.8119C145.606 39.0843 145.387 35.2419 144.267 31.618C143.147 27.9942 141.16 24.6983 138.477 22.0164C135.795 19.3345 132.499 17.3476 128.875 16.228C125.251 15.1084 121.409 14.89 117.681 15.5917C116.426 12.0121 114.316 8.79308 111.534 6.21404C108.752 3.63501 105.383 1.77393 101.719 0.79239C98.0549 -0.189149 94.2065 -0.261479 90.5081 0.581679C86.8097 1.42484 83.373 3.158 80.4964 5.63069C77.6189 3.1597 74.182 1.4281 70.4837 0.586107C66.7855 -0.255886 62.9377 -0.182843 59.2741 0.798897C55.6105 1.78064 52.2418 3.64142 49.4601 6.21984C46.6785 8.79825 44.568 12.0164 43.3117 15.5951C39.5843 14.8946 35.7422 15.114 32.1189 16.2343C28.4955 17.3547 25.2001 19.3421 22.5187 22.0243C19.8372 24.7064 17.8506 28.0022 16.7312 31.6259C15.6118 35.2496 15.3934 39.0917 16.0949 42.8189C12.5161 44.0752 9.29796 46.1857 6.71955 48.9674C4.14114 51.749 2.28034 55.1177 1.2986 58.7813C0.316857 62.4449 0.243803 66.2927 1.0858 69.9909C1.92779 73.6892 3.65942 77.1261 6.13041 80.0036C3.65867 82.881 1.92651 86.3181 1.08427 90.0167C0.24204 93.7153 0.315157 97.5636 1.29733 101.228C2.2795 104.891 4.14101 108.26 6.72031 111.042C9.29961 113.823 12.5188 115.933 16.0983 117.188C15.3962 120.916 15.6144 124.758 16.734 128.382C17.8535 132.006 19.8406 135.302 22.5227 137.983C25.2049 140.665 28.501 142.652 32.125 143.771C35.749 144.89 39.5914 145.108 43.3186 144.405C44.5749 147.984 46.6854 151.202 49.4671 153.78C52.2487 156.359 55.6175 158.22 59.281 159.201C62.9446 160.183 66.7924 160.256 70.4906 159.414C74.1889 158.572 77.6258 156.84 80.5033 154.37C83.3807 156.841 86.8179 158.573 90.5165 159.416C94.2151 160.258 98.0633 160.185 101.727 159.203C105.391 158.22 108.76 156.359 111.541 153.78C114.323 151.2 116.433 147.981 117.688 144.402C121.415 145.103 125.258 144.885 128.882 143.766C132.506 142.646 135.802 140.659 138.484 137.977C141.166 135.295 143.153 131.999 144.272 128.375C145.392 124.751 145.61 120.909 144.908 117.181C148.487 115.925 151.706 113.815 154.284 111.033C156.863 108.251 158.724 104.882 159.705 101.219C160.686 97.5547 160.759 93.7067 159.916 90.0085C159.074 86.3103 157.341 82.8736 154.869 79.9966Z" fill="#18C07A"/>
<path d="M66.1393 110.535L43.9082 88.3175C43.0645 87.4724 42.5906 86.3271 42.5906 85.133C42.5906 83.9388 43.0645 82.7935 43.9082 81.9484L46.6091 79.2441C47.4541 78.4004 48.5994 77.9265 49.7936 77.9265C50.9877 77.9265 52.1331 78.4004 52.9781 79.2441L69.1383 95.3939L107.197 54.9501C108.016 54.0811 109.146 53.5727 110.339 53.5363C111.533 53.4999 112.692 53.9385 113.562 54.7559L116.336 57.3736C117.206 58.1926 117.715 59.3236 117.752 60.5179C117.788 61.7122 117.349 62.8721 116.53 63.7426L72.6158 110.434C72.2024 110.875 71.7045 111.228 71.1518 111.472C70.5992 111.717 70.0031 111.847 69.3989 111.857C68.7947 111.866 68.1947 111.754 67.6348 111.527C67.0748 111.3 66.5662 110.962 66.1393 110.535Z" fill="white"/>
</g>
<defs>
<clipPath id="clip0_32_44719">
<rect width="160" height="160" fill="white" transform="translate(0.5)"/>
</clipPath>
</defs>
</svg>
